<svg width="22" height="19" viewBox="0 0 22 19" fill="none" xmlns="http://www.w3.org/2000/svg">
<path d="M4.83584 0.0949707C5.33084 0.0949707 6.21884 0.247971 6.21884 1.46672C6.21884 2.68547 5.33984 3.15422 4.83584 3.15422C4.33184 3.15422 3.55859 2.67572 3.55859 1.46672C3.55859 0.256971 4.40834 0.0949707 4.83584 0.0949707ZM2.11709 1.62497C2.61209 1.62497 3.50009 1.77722 3.50009 2.99597C3.50009 4.21472 2.62109 4.68347 2.11709 4.68347C1.61309 4.68347 0.839844 4.20572 0.839844 2.99597C0.839844 1.78697 1.68959 1.62497 2.11709 1.62497ZM9.50009 1.46672C9.50009 0.247971 8.61209 0.0957206 8.11709 0.0957206C7.68959 0.0957206 6.83984 0.256971 6.83984 1.46672C6.83984 2.67572 7.61309 3.15422 8.11709 3.15422C8.62109 3.15422 9.50009 2.68547 9.50009 1.46672ZM10.7773 1.62497C11.2723 1.62497 12.1603 1.77722 12.1603 2.99597C12.1603 4.21472 11.2813 4.68347 10.7773 4.68347C10.2733 4.68347 9.50009 4.20572 9.50009 2.99597C9.50009 1.78697 10.3498 1.62497 10.7773 1.62497ZM10.2381 7.60172C10.2381 5.41022 8.82059 3.51197 6.50009 3.51197C4.17959 3.51197 2.78534 5.36297 2.78534 7.60172C2.78534 9.46472 5.00609 9.46472 6.49484 9.46472H6.50009C8.15234 9.46472 10.2381 9.40622 10.2381 7.60172ZM11.1171 10.6602C11.6121 10.6602 12.5001 10.8125 12.5001 12.0312C12.5001 13.25 11.6211 13.7187 11.1171 13.7187C10.6131 13.7187 9.83984 13.2402 9.83984 12.0312C9.83984 10.8215 10.6896 10.6602 11.1171 10.6602ZM15.2188 10.502C15.2188 9.28322 14.3308 9.13097 13.8358 9.13097C13.4083 9.13097 12.5586 9.29222 12.5586 10.502C12.5586 11.711 13.3318 12.1895 13.8358 12.1895C14.3398 12.1895 15.2188 11.7207 15.2188 10.502ZM17.1171 9.13097C17.6121 9.13097 18.5001 9.28322 18.5001 10.502C18.5001 11.7207 17.6211 12.1895 17.1171 12.1895C16.6131 12.1895 15.8398 11.711 15.8398 10.502C15.8398 9.29222 16.6896 9.13097 17.1171 9.13097ZM21.1603 12.0312C21.1603 10.8125 20.2723 10.6602 19.7773 10.6602C19.3498 10.6602 18.5001 10.8215 18.5001 12.0312C18.5001 13.2402 19.2733 13.7187 19.7773 13.7187C20.2813 13.7187 21.1603 13.25 21.1603 12.0312ZM15.5001 12.5472C17.8206 12.5472 19.2381 14.4447 19.2381 16.637C19.2381 18.4415 17.1531 18.5 15.5001 18.5H15.4941C14.0061 18.5 11.7853 18.5 11.7853 16.637C11.7853 14.3982 13.1803 12.5472 15.5001 12.5472Z" fill="#101828"/>
</svg>
